<svg xmlns="http://www.w3.org/2000/svg" width="55" height="24" viewBox="0 0 55 24" fill="none">
    <mask id="mask0_1_3479" style="mask-type:luminance" maskUnits="userSpaceOnUse" x="1" y="1" width="53" height="22">
      <path d="M53.8979 1.74023H1.10182V22.9082H53.8979V1.74023Z" fill="white"/>
    </mask>
    <g mask="url(#mask0_1_3479)">
      <path d="M25.0302 19.1619C18.7337 18.5126 19.9264 11.1249 19.9264 11.1249L20.2631 7.83211C20.3987 6.51128 21.7647 5.45164 23.1604 5.59586L25.9679 5.88181C25.9859 5.88367 26.0045 5.87872 26.0187 5.86758C26.0329 5.85644 26.0422 5.83972 26.0441 5.82177C26.4452 3.55643 29.3053 2.14833 29.7856 1.92613C29.7967 1.92118 29.8091 1.9187 29.8215 1.9187C29.8339 1.92056 29.8456 1.92551 29.8555 1.93294C29.8654 1.94036 29.8735 1.95027 29.8784 1.96203L30.3006 3.1077C30.3049 3.11822 30.3068 3.12936 30.3049 3.13988C30.3037 3.15474 30.2975 3.16835 30.287 3.17949C30.2771 3.19063 30.2634 3.19806 30.2492 3.20116C27.4268 3.5391 26.7744 4.94906 26.6618 5.88181C26.6599 5.89976 26.6649 5.91771 26.676 5.93195C26.6872 5.94618 26.7033 5.95547 26.7212 5.95794L29.6092 6.25194C31.0012 6.39368 32.1308 7.70708 31.9959 9.02853L31.6598 12.3226C31.6598 12.3226 31.3311 19.7963 25.0302 19.1625V19.1619Z" fill="#6F3192"/>
      <path d="M53.8886 13.3344C53.8886 13.3344 54.3157 6.03516 48.1201 6.03516H48.06C45.7483 6.03516 44.3606 7.0558 43.5256 8.32526C42.6907 7.05147 41.2987 6.03516 38.9912 6.03516H38.93C32.7356 6.03516 33.1626 13.3344 33.1626 13.3344V17.9536C33.1583 17.974 33.1558 17.995 33.154 18.0161C33.154 19.392 35.6297 19.4576 35.6297 18.0161V10.1202C35.6297 10.1202 35.6205 6.55198 38.9597 6.55198C42.2989 6.55198 42.2902 10.1202 42.2902 10.1202V12.6851C42.2772 13.0887 42.2902 13.3344 42.2902 13.3344V17.9536C42.2902 17.9759 42.2828 17.9944 42.2828 18.0161C42.2828 19.3815 44.758 19.4694 44.7604 18.0161V13.3344C44.7604 13.3344 44.7753 13.0893 44.7604 12.6851V10.1202C44.7604 10.1202 44.7511 6.55198 48.0941 6.55198C51.437 6.55198 51.4221 10.1202 51.4221 10.1202V18.0149C51.4221 19.397 53.8992 19.4508 53.8992 18.0149C53.8979 17.9938 53.8948 17.9734 53.8899 17.9523L53.8886 13.3338V13.3344Z" fill="#6F3192"/>
      <path d="M17.8316 2.80264V2.79645C17.8316 1.42177 15.3707 1.35431 15.3707 2.79645C15.3707 2.84411 15.3762 2.89239 15.3855 2.93943V18.0157C15.3855 19.3898 17.8316 19.4405 17.8316 18.0157V2.80326V2.80264Z" fill="#6F3192"/>
      <path d="M13.1354 10.2609C12.8073 9.45504 12.3388 8.71416 11.7508 8.07293C11.177 7.44408 10.49 6.9285 9.7256 6.55342C8.67153 6.03598 7.24486 5.90414 6.10662 6.15729C5.42702 6.31265 4.78022 6.5856 4.1947 6.96316C3.04346 7.6929 2.15899 8.77543 1.67311 10.0486C1.25842 11.12 1.10121 12.3331 1.10121 13.3433V21.7764L1.10678 21.9119C1.18291 23.2458 3.57823 23.2588 3.57823 21.8544C3.57947 21.8352 3.57947 21.816 3.57823 21.7968V16.8304C3.85737 17.5348 4.31477 18.1543 4.90649 18.6284C5.56752 19.1638 6.43157 19.4318 7.50049 19.4318C8.31936 19.4349 9.1277 19.2461 9.86053 18.8797C10.5934 18.5158 11.2538 18.0212 11.8096 17.4209C12.3827 16.8001 12.837 16.0784 13.1478 15.2929C13.4776 14.5285 13.6472 13.7047 13.6454 12.8722C13.6491 11.9772 13.4764 11.0903 13.136 10.2621L13.1354 10.2609ZM10.5859 15.5486C10.5117 16.1916 10.3396 16.8193 10.0747 17.4103C9.85806 17.8987 9.5034 18.3128 9.05404 18.6012C8.61707 18.8797 8.0563 19.0184 7.37732 19.0184C6.66058 19.0184 6.06763 18.8884 5.60404 18.6315C5.15716 18.3908 4.76846 18.0553 4.46518 17.648C4.25536 17.3751 4.08453 17.0743 3.95764 16.7549C3.8159 16.3891 3.71378 16.0091 3.65127 15.6216C3.61908 15.4508 3.5937 15.2651 3.57266 15.0714V12.4743C3.60299 11.5106 3.6655 9.90377 3.78619 9.35291C3.87285 9.00135 3.99478 8.65907 4.15075 8.33227C4.42185 7.76717 4.80684 7.40447 5.29952 7.04858C5.7922 6.69268 6.45014 6.51257 7.26715 6.51257C8.08416 6.51257 8.69444 6.6704 9.16112 6.98916C10.0109 7.56601 10.4021 8.45668 10.5432 9.43894C10.6961 10.5877 10.7636 11.7458 10.7444 12.9044C10.7512 13.787 10.6986 14.669 10.5866 15.5442V15.5479L10.5859 15.5486Z" fill="#6F3192"/>
    </g>
  </svg>