<svg xmlns="http://www.w3.org/2000/svg" width="24" height="24" viewBox="0 0 24 24" fill="none">
    <path fill-rule="evenodd" clip-rule="evenodd"
        d="M17.5 20.2501C17.5 19.2376 18.3208 18.4167 19.3333 18.4167C20.3459 18.4167 21.1667 19.2376 21.1667 20.2501C21.1667 21.2626 20.3459 22.0834 19.3333 22.0834C18.3208 22.0834 17.5 21.2626 17.5 20.2501Z"
        fill="#464B62" />
    <path fill-rule="evenodd" clip-rule="evenodd"
        d="M7.41663 20.2501C7.41663 19.2376 8.23744 18.4167 9.24996 18.4167C10.2625 18.4167 11.0833 19.2376 11.0833 20.2501C11.0833 21.2626 10.2625 22.0834 9.24996 22.0834C8.23744 22.0834 7.41663 21.2626 7.41663 20.2501Z"
        fill="#464B62" />
    <path fill-rule="evenodd" clip-rule="evenodd"
        d="M1 1.91667C1 1.41041 1.41041 1 1.91667 1H5.58333C6.02024 1 6.39643 1.30835 6.48217 1.73676L7.25206 5.58333H22.0833C22.3565 5.58333 22.6155 5.70518 22.7896 5.91568C22.9638 6.12617 23.035 6.40336 22.9838 6.67172L21.5158 14.3694C21.3901 15.0025 21.0456 15.5711 20.5429 15.9758C20.0426 16.3785 19.4173 16.5934 18.7754 16.5833H9.88126C9.23934 16.5934 8.61402 16.3785 8.11377 15.9758C7.61123 15.5713 7.26692 15.0029 7.14105 14.3702C7.141 14.3699 7.1411 14.3705 7.14105 14.3702L5.60972 6.71927C5.60351 6.69396 5.59835 6.66824 5.59429 6.64215L4.83196 2.83333H1.91667C1.41041 2.83333 1 2.42293 1 1.91667ZM7.619 7.41667L8.9391 14.0123C8.98102 14.2233 9.09581 14.4128 9.26339 14.5477C9.43098 14.6826 9.64067 14.7543 9.85577 14.7502L9.87333 14.75H18.7833L18.8009 14.7502C19.016 14.7543 19.2257 14.6826 19.3933 14.5477C19.5601 14.4134 19.6746 14.225 19.717 14.0152L20.9753 7.41667H7.619Z"
        fill="#464B62" />
</svg>