<svg xmlns="http://www.w3.org/2000/svg" width="18" height="18" viewBox="0 0 18 18" fill="none">
    <path fill-rule="evenodd" clip-rule="evenodd"
        d="M2.76319 1.28332C2.3545 0.874635 1.69189 0.874635 1.2832 1.28332C0.874513 1.69201 0.874513 2.35463 1.2832 2.76331L7.51995 9.00006L1.2832 15.2368C0.874513 15.6455 0.874513 16.3081 1.2832 16.7168C1.69189 17.1255 2.3545 17.1255 2.76319 16.7168L8.99994 10.4801L15.2367 16.7168C15.6454 17.1255 16.308 17.1255 16.7167 16.7168C17.1254 16.3081 17.1254 15.6455 16.7167 15.2368L10.4799 9.00006L16.7167 2.76331C17.1254 2.35463 17.1254 1.69201 16.7167 1.28332C16.308 0.874635 15.6454 0.874635 15.2367 1.28332L8.99994 7.52007L2.76319 1.28332Z"
        fill="#172B4D" />
</svg>