<svg xmlns="http://www.w3.org/2000/svg" width="24" height="24" viewBox="0 0 24 24" fill="none">
    <path
        d="M16.3645 4.33971C16.8039 4.33971 20.6602 4.46784 20.6602 8.905C20.6602 13.154 17.2468 15.9982 11.9997 20.0631C6.75252 15.9986 3.33976 13.1547 3.33976 8.905C3.33976 4.46785 7.19562 4.33971 7.63503 4.33971C9.56735 4.33971 11.0248 5.79855 11.0343 5.80755L11.9943 6.79494L12.9609 5.81321C12.9756 5.79787 14.4324 4.33971 16.3647 4.33971M16.3647 3C13.8059 3 12.0002 4.87908 12.0002 4.87908C12.0002 4.87908 10.1937 3 7.63497 3C5.32388 3 2 4.44619 2 8.90535C2.00023 14.0131 6.12 17.2136 12.0003 21.7567C17.8797 17.2133 22 14.0132 22 8.90535C22 4.44654 18.6752 3.00058 16.3646 3.00058L16.3647 3Z"
        fill="#464B62" />
    <path
        d="M16.3645 4.33971C16.8039 4.33971 20.6602 4.46784 20.6602 8.905C20.6602 13.154 17.2468 15.9982 11.9997 20.0631C6.75252 15.9986 3.33976 13.1547 3.33976 8.905C3.33976 4.46785 7.19562 4.33971 7.63503 4.33971C9.56735 4.33971 11.0248 5.79855 11.0343 5.80755L11.9943 6.79494L12.9609 5.81321C12.9756 5.79787 14.4324 4.33971 16.3647 4.33971M16.3647 3C13.8059 3 12.0002 4.87908 12.0002 4.87908C12.0002 4.87908 10.1937 3 7.63497 3C5.32388 3 2 4.44619 2 8.90535C2.00023 14.0131 6.12 17.2136 12.0003 21.7567C17.8797 17.2133 22 14.0132 22 8.90535C22 4.44654 18.6752 3.00058 16.3646 3.00058L16.3647 3Z"
        stroke="#464B62" stroke-width="0.5" />
</svg>