<svg xmlns="http://www.w3.org/2000/svg" width="20" height="20" viewBox="0 0 20 20" fill="none">
    <path fill-rule="evenodd" clip-rule="evenodd"
        d="M9.94337 0.916748H10.0566C11.7763 0.916731 13.1441 0.916717 14.2158 1.06236C15.3216 1.21265 16.2234 1.53041 16.9348 2.24953C17.6451 2.96754 17.958 3.87583 18.1062 4.98978C18.25 6.07147 18.25 7.45267 18.25 9.19239V13.4565C18.25 14.7066 18.25 15.7068 18.1693 16.4624C18.0897 17.2073 17.9167 17.9158 17.3965 18.3952C16.9884 18.7712 16.4723 19.0084 15.9212 19.0715C15.216 19.1522 14.5698 18.814 13.9622 18.3835C13.3458 17.9469 12.6007 17.2879 11.6706 16.4651L11.6346 16.4334C11.1995 16.0485 10.9111 15.7944 10.6721 15.6196C10.4429 15.4521 10.3153 15.4007 10.2183 15.3812C10.0742 15.3522 9.92583 15.3522 9.78167 15.3812C9.68468 15.4007 9.55712 15.4521 9.32794 15.6196C9.08891 15.7944 8.8005 16.0485 8.36535 16.4334L8.32946 16.4651C7.3993 17.2879 6.65417 17.9469 6.03782 18.3835C5.43015 18.814 4.78404 19.1522 4.07883 19.0715C3.52775 19.0084 3.01155 18.7712 2.60349 18.3952C2.0833 17.9158 1.91032 17.2073 1.83072 16.4624C1.74998 15.7068 1.74999 14.7066 1.75 13.4565V9.19239C1.74998 7.45266 1.74997 6.07146 1.89384 4.98978C2.042 3.87583 2.35486 2.96754 3.06517 2.24953C3.77659 1.53041 4.6784 1.21265 5.78423 1.06236C6.85591 0.916717 8.22366 0.916731 9.94337 0.916748ZM5.98623 2.5487C5.0497 2.67598 4.51846 2.91334 4.13153 3.30446C3.74349 3.69671 3.50717 4.237 3.38075 5.18754C3.25156 6.15884 3.25 7.44011 3.25 9.24801V13.4092C3.25 14.7174 3.25104 15.6369 3.32222 16.303C3.39556 16.9892 3.52846 17.2078 3.62002 17.2922C3.79547 17.4538 4.01583 17.5545 4.24936 17.5812C4.36674 17.5947 4.61222 17.5551 5.17079 17.1595C5.71278 16.7756 6.3973 16.1716 7.37158 15.3098L7.39699 15.2873C7.79994 14.9309 8.14048 14.6297 8.44255 14.4088C8.76079 14.1761 9.09118 13.9902 9.48546 13.9107C9.82513 13.8423 10.1749 13.8423 10.5145 13.9107C10.9088 13.9902 11.2392 14.1761 11.5575 14.4088C11.8595 14.6297 12.2001 14.9309 12.603 15.2874L12.6284 15.3098C13.6027 16.1716 14.2872 16.7756 14.8292 17.1595C15.3878 17.5551 15.6333 17.5947 15.7506 17.5812C15.9842 17.5545 16.2045 17.4538 16.38 17.2922C16.4715 17.2078 16.6044 16.9892 16.6778 16.303C16.749 15.6369 16.75 14.7174 16.75 13.4092V9.24801C16.75 7.44011 16.7484 6.15884 16.6193 5.18754C16.4928 4.237 16.2565 3.69671 15.8685 3.30446C15.4815 2.91334 14.9503 2.67598 14.0138 2.5487C13.0548 2.41838 11.7892 2.41675 10 2.41675C8.21081 2.41675 6.94517 2.41838 5.98623 2.5487Z"
        fill="#172B4D" />
</svg>